<mxfile host="app.diagrams.net" modified="2022-05-09T14:44:47.315Z" agent="5.0 (Windows NT 10.0; Win64; x64) AppleWebKit/537.36 (KHTML, like Gecko) Chrome/101.0.4951.54 Safari/537.36 Edg/101.0.1210.39" etag="DYAgZexVZ5nmM5Jv108y" version="18.0.1" type="github">
  <diagram id="WgMpESdFrRoRxfq_K1vr" name="Page-1">
    <mxGraphModel dx="1038" dy="579" grid="1" gridSize="10" guides="1" tooltips="1" connect="1" arrows="1" fold="1" page="1" pageScale="1" pageWidth="850" pageHeight="1100" math="0" shadow="0">
      <root>
        <mxCell id="0" />
        <mxCell id="1" parent="0" />
        <mxCell id="EbwyS3jhm5S2gFzpyTax-3" value="" style="edgeStyle=orthogonalEdgeStyle;rounded=0;orthogonalLoop=1;jettySize=auto;html=1;" edge="1" parent="1" source="EbwyS3jhm5S2gFzpyTax-1" target="EbwyS3jhm5S2gFzpyTax-2">
          <mxGeometry relative="1" as="geometry" />
        </mxCell>
        <mxCell id="EbwyS3jhm5S2gFzpyTax-1" value="start" style="rounded=1;whiteSpace=wrap;html=1;" vertex="1" parent="1">
          <mxGeometry x="40" y="40" width="90" height="20" as="geometry" />
        </mxCell>
        <mxCell id="EbwyS3jhm5S2gFzpyTax-5" value="yes" style="edgeStyle=orthogonalEdgeStyle;rounded=0;orthogonalLoop=1;jettySize=auto;html=1;" edge="1" parent="1" source="EbwyS3jhm5S2gFzpyTax-2" target="EbwyS3jhm5S2gFzpyTax-4">
          <mxGeometry relative="1" as="geometry">
            <Array as="points">
              <mxPoint x="85" y="210" />
              <mxPoint x="85" y="210" />
            </Array>
          </mxGeometry>
        </mxCell>
        <mxCell id="EbwyS3jhm5S2gFzpyTax-30" value="" style="edgeStyle=orthogonalEdgeStyle;rounded=0;orthogonalLoop=1;jettySize=auto;html=1;fontSize=9;" edge="1" parent="1" source="EbwyS3jhm5S2gFzpyTax-2" target="EbwyS3jhm5S2gFzpyTax-29">
          <mxGeometry relative="1" as="geometry">
            <Array as="points">
              <mxPoint x="150" y="150" />
              <mxPoint x="150" y="10" />
              <mxPoint x="650" y="10" />
            </Array>
          </mxGeometry>
        </mxCell>
        <mxCell id="EbwyS3jhm5S2gFzpyTax-31" value="NO" style="edgeLabel;html=1;align=center;verticalAlign=middle;resizable=0;points=[];fontSize=9;" vertex="1" connectable="0" parent="EbwyS3jhm5S2gFzpyTax-30">
          <mxGeometry x="0.5379" y="-3" relative="1" as="geometry">
            <mxPoint as="offset" />
          </mxGeometry>
        </mxCell>
        <mxCell id="EbwyS3jhm5S2gFzpyTax-2" value="IF sight rng not empty" style="rhombus;whiteSpace=wrap;html=1;" vertex="1" parent="1">
          <mxGeometry x="45" y="110" width="80" height="80" as="geometry" />
        </mxCell>
        <mxCell id="EbwyS3jhm5S2gFzpyTax-7" value="" style="edgeStyle=orthogonalEdgeStyle;rounded=0;orthogonalLoop=1;jettySize=auto;html=1;" edge="1" parent="1" source="EbwyS3jhm5S2gFzpyTax-4" target="EbwyS3jhm5S2gFzpyTax-6">
          <mxGeometry relative="1" as="geometry" />
        </mxCell>
        <mxCell id="EbwyS3jhm5S2gFzpyTax-4" value="clone the neighbor agent list" style="whiteSpace=wrap;html=1;" vertex="1" parent="1">
          <mxGeometry x="25" y="230" width="120" height="60" as="geometry" />
        </mxCell>
        <mxCell id="EbwyS3jhm5S2gFzpyTax-9" value="" style="edgeStyle=orthogonalEdgeStyle;rounded=0;orthogonalLoop=1;jettySize=auto;html=1;fontSize=9;" edge="1" parent="1" source="EbwyS3jhm5S2gFzpyTax-6" target="EbwyS3jhm5S2gFzpyTax-8">
          <mxGeometry relative="1" as="geometry" />
        </mxCell>
        <mxCell id="EbwyS3jhm5S2gFzpyTax-6" value="&lt;font style=&quot;font-size: 9px;&quot;&gt;IF sight rng not empty&amp;nbsp; and attack dimesion is not ground&amp;amp;air&lt;/font&gt;" style="rhombus;whiteSpace=wrap;html=1;" vertex="1" parent="1">
          <mxGeometry x="45" y="330" width="80" height="80" as="geometry" />
        </mxCell>
        <mxCell id="EbwyS3jhm5S2gFzpyTax-11" value="" style="edgeStyle=orthogonalEdgeStyle;rounded=0;orthogonalLoop=1;jettySize=auto;html=1;fontSize=9;" edge="1" parent="1" source="EbwyS3jhm5S2gFzpyTax-8" target="EbwyS3jhm5S2gFzpyTax-10">
          <mxGeometry relative="1" as="geometry">
            <Array as="points">
              <mxPoint x="170" y="480" />
              <mxPoint x="170" y="70" />
            </Array>
          </mxGeometry>
        </mxCell>
        <mxCell id="EbwyS3jhm5S2gFzpyTax-8" value="clone the agents" style="whiteSpace=wrap;html=1;" vertex="1" parent="1">
          <mxGeometry x="25" y="450" width="120" height="60" as="geometry" />
        </mxCell>
        <mxCell id="EbwyS3jhm5S2gFzpyTax-13" value="" style="edgeStyle=orthogonalEdgeStyle;rounded=0;orthogonalLoop=1;jettySize=auto;html=1;fontSize=9;" edge="1" parent="1" source="EbwyS3jhm5S2gFzpyTax-10" target="EbwyS3jhm5S2gFzpyTax-12">
          <mxGeometry relative="1" as="geometry" />
        </mxCell>
        <mxCell id="EbwyS3jhm5S2gFzpyTax-10" value="FOR all sight rng data" style="rhombus;whiteSpace=wrap;html=1;" vertex="1" parent="1">
          <mxGeometry x="210" y="30" width="80" height="80" as="geometry" />
        </mxCell>
        <mxCell id="EbwyS3jhm5S2gFzpyTax-15" value="" style="edgeStyle=orthogonalEdgeStyle;rounded=0;orthogonalLoop=1;jettySize=auto;html=1;fontSize=9;" edge="1" parent="1" source="EbwyS3jhm5S2gFzpyTax-12" target="EbwyS3jhm5S2gFzpyTax-14">
          <mxGeometry relative="1" as="geometry" />
        </mxCell>
        <mxCell id="EbwyS3jhm5S2gFzpyTax-12" value="IF agent is card&amp;nbsp;" style="rhombus;whiteSpace=wrap;html=1;" vertex="1" parent="1">
          <mxGeometry x="210" y="150" width="80" height="80" as="geometry" />
        </mxCell>
        <mxCell id="EbwyS3jhm5S2gFzpyTax-17" value="" style="edgeStyle=orthogonalEdgeStyle;rounded=0;orthogonalLoop=1;jettySize=auto;html=1;fontSize=9;" edge="1" parent="1" source="EbwyS3jhm5S2gFzpyTax-14" target="EbwyS3jhm5S2gFzpyTax-16">
          <mxGeometry relative="1" as="geometry" />
        </mxCell>
        <mxCell id="EbwyS3jhm5S2gFzpyTax-14" value="&lt;font style=&quot;font-size: 9px;&quot;&gt;IF agent movement != attack dimesion and agent not stationary&lt;/font&gt;" style="rhombus;whiteSpace=wrap;html=1;" vertex="1" parent="1">
          <mxGeometry x="200" y="260" width="100" height="90" as="geometry" />
        </mxCell>
        <mxCell id="EbwyS3jhm5S2gFzpyTax-19" value="" style="edgeStyle=orthogonalEdgeStyle;rounded=0;orthogonalLoop=1;jettySize=auto;html=1;fontSize=9;" edge="1" parent="1" source="EbwyS3jhm5S2gFzpyTax-16" target="EbwyS3jhm5S2gFzpyTax-18">
          <mxGeometry relative="1" as="geometry" />
        </mxCell>
        <mxCell id="EbwyS3jhm5S2gFzpyTax-16" value="delete the sight rng data" style="whiteSpace=wrap;html=1;" vertex="1" parent="1">
          <mxGeometry x="190" y="380" width="120" height="60" as="geometry" />
        </mxCell>
        <mxCell id="EbwyS3jhm5S2gFzpyTax-21" value="" style="edgeStyle=orthogonalEdgeStyle;rounded=0;orthogonalLoop=1;jettySize=auto;html=1;fontSize=9;" edge="1" parent="1" source="EbwyS3jhm5S2gFzpyTax-18" target="EbwyS3jhm5S2gFzpyTax-20">
          <mxGeometry relative="1" as="geometry">
            <Array as="points">
              <mxPoint x="320" y="500" />
              <mxPoint x="320" y="90" />
            </Array>
          </mxGeometry>
        </mxCell>
        <mxCell id="EbwyS3jhm5S2gFzpyTax-18" value="IF same agent is in attack range" style="rhombus;whiteSpace=wrap;html=1;" vertex="1" parent="1">
          <mxGeometry x="210" y="460" width="80" height="80" as="geometry" />
        </mxCell>
        <mxCell id="EbwyS3jhm5S2gFzpyTax-23" value="" style="edgeStyle=orthogonalEdgeStyle;rounded=0;orthogonalLoop=1;jettySize=auto;html=1;fontSize=9;" edge="1" parent="1" source="EbwyS3jhm5S2gFzpyTax-20" target="EbwyS3jhm5S2gFzpyTax-22">
          <mxGeometry relative="1" as="geometry" />
        </mxCell>
        <mxCell id="EbwyS3jhm5S2gFzpyTax-24" style="edgeStyle=orthogonalEdgeStyle;rounded=0;orthogonalLoop=1;jettySize=auto;html=1;entryX=1;entryY=0.5;entryDx=0;entryDy=0;fontSize=9;" edge="1" parent="1" target="EbwyS3jhm5S2gFzpyTax-10">
          <mxGeometry relative="1" as="geometry">
            <mxPoint x="420" y="150" as="sourcePoint" />
            <Array as="points">
              <mxPoint x="540" y="150" />
              <mxPoint x="540" y="40" />
              <mxPoint x="290" y="40" />
            </Array>
          </mxGeometry>
        </mxCell>
        <mxCell id="EbwyS3jhm5S2gFzpyTax-25" value="next agent" style="edgeLabel;html=1;align=center;verticalAlign=middle;resizable=0;points=[];fontSize=9;" vertex="1" connectable="0" parent="EbwyS3jhm5S2gFzpyTax-24">
          <mxGeometry x="0.542" relative="1" as="geometry">
            <mxPoint as="offset" />
          </mxGeometry>
        </mxCell>
        <mxCell id="EbwyS3jhm5S2gFzpyTax-20" value="delete the data in attack rng also" style="whiteSpace=wrap;html=1;" vertex="1" parent="1">
          <mxGeometry x="360" y="60" width="120" height="60" as="geometry" />
        </mxCell>
        <mxCell id="EbwyS3jhm5S2gFzpyTax-27" value="" style="edgeStyle=orthogonalEdgeStyle;rounded=0;orthogonalLoop=1;jettySize=auto;html=1;fontSize=9;" edge="1" parent="1" source="EbwyS3jhm5S2gFzpyTax-22" target="EbwyS3jhm5S2gFzpyTax-26">
          <mxGeometry relative="1" as="geometry" />
        </mxCell>
        <mxCell id="EbwyS3jhm5S2gFzpyTax-22" value="set the size data of sight and attack range data" style="whiteSpace=wrap;html=1;" vertex="1" parent="1">
          <mxGeometry x="360" y="200" width="120" height="60" as="geometry" />
        </mxCell>
        <mxCell id="EbwyS3jhm5S2gFzpyTax-35" value="" style="edgeStyle=orthogonalEdgeStyle;rounded=0;orthogonalLoop=1;jettySize=auto;html=1;fontSize=9;" edge="1" parent="1" source="EbwyS3jhm5S2gFzpyTax-26" target="EbwyS3jhm5S2gFzpyTax-34">
          <mxGeometry relative="1" as="geometry" />
        </mxCell>
        <mxCell id="EbwyS3jhm5S2gFzpyTax-26" value="return the filtered the agent list" style="whiteSpace=wrap;html=1;" vertex="1" parent="1">
          <mxGeometry x="360" y="300" width="120" height="60" as="geometry" />
        </mxCell>
        <mxCell id="EbwyS3jhm5S2gFzpyTax-33" value="" style="edgeStyle=orthogonalEdgeStyle;rounded=0;orthogonalLoop=1;jettySize=auto;html=1;fontSize=9;" edge="1" parent="1" source="EbwyS3jhm5S2gFzpyTax-29" target="EbwyS3jhm5S2gFzpyTax-32">
          <mxGeometry relative="1" as="geometry" />
        </mxCell>
        <mxCell id="EbwyS3jhm5S2gFzpyTax-29" value="ELSE&amp;nbsp;" style="rhombus;whiteSpace=wrap;html=1;" vertex="1" parent="1">
          <mxGeometry x="610" y="60" width="80" height="80" as="geometry" />
        </mxCell>
        <mxCell id="EbwyS3jhm5S2gFzpyTax-32" value="User console" style="whiteSpace=wrap;html=1;" vertex="1" parent="1">
          <mxGeometry x="590" y="200" width="120" height="60" as="geometry" />
        </mxCell>
        <mxCell id="EbwyS3jhm5S2gFzpyTax-34" value="end" style="ellipse;whiteSpace=wrap;html=1;" vertex="1" parent="1">
          <mxGeometry x="360" y="420" width="120" height="60" as="geometry" />
        </mxCell>
      </root>
    </mxGraphModel>
  </diagram>
</mxfile>
